<svg data-v-423bf9ae="" xmlns="http://www.w3.org/2000/svg" viewBox="0 0 204.2976650606237 163" class="iconAbove"><!----><!----><!----><g data-v-423bf9ae="" id="2ccaddd6-365a-41f6-afac-8a77dcdf2cf4" fill="white" transform="matrix(5.016722792052415,0,0,5.016722792052415,-0.2006662330292528,105.4080265590344)"><path d="M6.09 2.79L6.09 2.79L6.09 2.79Q6.09 3.21 6.01 3.75L6.01 3.75L6.01 3.75Q5.92 4.28 5.81 4.79L5.81 4.79L5.81 4.79Q5.70 5.29 5.56 5.68L5.56 5.68L5.56 5.68Q5.42 6.08 5.32 6.22L5.32 6.22L5.32 6.22Q5.24 6.38 5.12 6.58L5.12 6.58L5.12 6.58Q4.73 7.25 4.12 7.74L4.12 7.74L4.12 7.74Q2.90 8.69 1.44 8.33L1.44 8.33L1.44 8.33Q1.37 8.30 1.29 8.28L1.29 8.28L1.29 8.28Q1.22 8.26 1.15 8.23L1.15 8.23L1.15 8.23Q1.12 8.90 1.11 9.16L1.11 9.16L1.11 9.16Q1.11 9.41 1.11 9.45L1.11 9.45L1.11 9.45Q1.11 9.90 1.14 10.20L1.14 10.20L1.14 10.20Q1.18 10.50 1.23 10.68L1.23 10.68L1.23 10.68Q1.29 10.86 1.35 10.96L1.35 10.96L1.35 10.96Q1.41 11.05 1.47 11.07L1.47 11.07L1.47 11.07Q1.58 11.16 1.55 11.30L1.55 11.30L1.55 11.30Q1.51 11.44 1.36 11.44L1.36 11.44L1.33 11.44L1.33 11.44Q1.32 11.44 1.30 11.45L1.30 11.45L1.30 11.45Q1.29 11.45 1.26 11.45L1.26 11.45L1.26 11.45Q1.19 11.48 1.14 11.48L1.14 11.48L1.14 11.48Q1.09 11.48 1.05 11.48L1.05 11.48L1.05 11.48Q0.73 11.48 0.56 11.36L0.56 11.36L0.56 11.36Q0.39 11.24 0.31 11.12L0.31 11.12L0.31 11.10L0.31 11.10Q0.25 10.99 0.20 10.80L0.20 10.80L0.20 10.80Q0.15 10.61 0.13 10.32L0.13 10.32L0.13 10.32Q0.04 9.72 0.04 7.67L0.04 7.67L0.04 7.67Q0.07 7.53 0.07 7.40L0.07 7.40L0.07 7.40Q0.07 7.27 0.07 7.13L0.07 7.13L0.07 6.82L0.07 6.82Q0.08 6.75 0.09 6.68L0.09 6.68L0.09 6.68Q0.10 6.61 0.08 6.54L0.08 6.54L0.08 6.52L0.08 6.52Q0.08 5.98 0.10 5.23L0.10 5.23L0.10 5.23Q0.13 4.48 0.20 3.53L0.20 3.53L0.20 3.53Q0.22 3.00 0.24 2.54L0.24 2.54L0.24 2.54Q0.27 2.09 0.29 1.82L0.29 1.82L0.27 1.82L0.27 1.82Q0.32 1.26 0.31 0.70L0.31 0.70L0.36 0.04L0.36 0.04Q0.39-0.04 0.42-0.08L0.42-0.08L0.42-0.08Q0.64-0.29 1.05-0.29L1.05-0.29L1.11-0.29L1.11-0.29Q1.60-0.29 1.75 0.11L1.75 0.11L1.75 0.11Q1.82 0.07 1.89 0.03L1.89 0.03L1.89 0.03Q1.96-0.01 2.03-0.04L2.03-0.04L2.03-0.04Q2.70-0.35 3.43-0.34L3.43-0.34L3.43-0.34Q4.16-0.31 4.91 0.04L4.91 0.04L4.91 0.04Q5.38 0.28 5.61 0.65L5.61 0.65L5.61 0.65Q5.85 1.02 5.96 1.42L5.96 1.42L5.96 1.42Q6.06 1.82 6.08 2.19L6.08 2.19L6.08 2.19Q6.09 2.56 6.09 2.79ZM4.69 3.96L4.69 3.96L4.69 3.96Q4.80 3.25 4.83 2.69L4.83 2.69L4.83 2.69Q4.86 2.13 4.79 1.71L4.79 1.71L4.79 1.71Q4.66 0.92 4.20 0.67L4.20 0.67L4.20 0.67Q3.36 0.21 2.42 0.77L2.42 0.77L2.42 0.77Q2.06 0.99 1.67 1.39L1.67 1.39L1.67 1.41L1.67 1.41Q1.50 2.07 1.33 4.14L1.33 4.14L1.33 4.14Q1.26 4.91 1.23 5.47L1.23 5.47L1.23 5.47Q1.20 6.03 1.19 6.37L1.19 6.37L1.19 6.37Q1.19 6.51 1.19 6.65L1.19 6.65L1.19 6.65Q1.19 6.79 1.18 6.93L1.18 6.93L1.18 6.93Q1.16 7.07 1.18 7.24L1.18 7.24L1.18 7.24Q1.32 7.31 1.46 7.37L1.46 7.37L1.46 7.37Q1.61 7.43 1.78 7.48L1.78 7.48L1.78 7.48Q2.72 7.73 3.42 7.07L3.42 7.07L3.42 7.07Q4.07 6.41 4.49 4.91L4.49 4.91L4.49 4.91Q4.55 4.69 4.60 4.45L4.60 4.45L4.60 4.45Q4.65 4.21 4.69 3.96ZM10.15 5.53L10.15 5.53L10.15 5.53Q10.21 5.53 10.34 5.59L10.34 5.59L10.34 5.59Q10.47 5.66 10.47 5.95L10.47 5.95L10.47 5.95Q10.47 6.44 9.88 8.29L9.88 8.29L9.88 8.29Q9.65 8.99 9.46 9.41L9.46 9.41L9.46 9.41Q9.28 9.83 9.13 10.05L9.13 10.05L9.13 10.05Q8.99 10.28 8.87 10.35L8.87 10.35L8.87 10.35Q8.75 10.42 8.65 10.42L8.65 10.42L8.65 10.42Q8.08 10.42 7.71 9.77L7.71 9.77L7.71 9.77Q7.66 9.70 7.61 9.49L7.61 9.49L7.61 9.49Q7.56 9.28 7.53 8.76L7.53 8.76L7.53 7.69L7.53 6.48L7.53 6.48Q7.53 6.45 7.48 6.35L7.48 6.35L7.48 6.35Q7.42 6.24 7.17 6.08L7.17 6.08L7.17 6.08Q7.08 6.52 6.83 7.39L6.83 7.39L6.83 7.39Q6.83 7.43 6.75 7.60L6.75 7.60L6.75 7.60Q6.72 7.66 6.71 7.69L6.71 7.69L6.71 7.69Q6.69 7.71 6.68 7.73L6.68 7.73L6.68 7.73Q6.68 7.78 6.61 7.83L6.61 7.83L6.61 7.83Q6.54 7.90 6.44 7.85L6.44 7.85L6.23 7.80L6.23 7.80Q6.08 7.74 6.08 7.60L6.08 7.60L6.08 7.60Q6.08 7.59 6.08 7.55L6.08 7.55L6.08 7.55Q6.08 7.52 6.10 7.43L6.10 7.43L6.10 7.43Q6.12 7.34 6.16 7.17L6.16 7.17L6.16 7.17Q6.20 7 6.29 6.71L6.29 6.71L6.29 6.71Q6.47 6.02 6.47 5.60L6.47 5.60L6.47 5.60Q6.47 5.57 6.45 5.47L6.45 5.47L6.45 5.47Q6.44 5.36 6.37 5.17L6.37 5.17L6.37 5.17Q6.23 4.83 6.23 4.56L6.23 4.56L6.23 4.56Q6.23 4.27 6.29 4.09L6.29 4.09L6.29 4.09Q6.34 3.91 6.43 3.80L6.43 3.80L6.43 3.80Q6.51 3.70 6.62 3.65L6.62 3.65L6.62 3.65Q6.72 3.61 6.82 3.61L6.82 3.61L6.82 3.61Q6.87 3.61 6.96 3.63L6.96 3.63L6.96 3.63Q7.04 3.65 7.12 3.72L7.12 3.72L7.12 3.72Q7.20 3.79 7.26 3.93L7.26 3.93L7.26 3.93Q7.32 4.06 7.34 4.27L7.34 4.27L7.34 4.27Q7.35 4.41 7.31 4.76L7.31 4.76L7.31 4.76Q7.28 4.96 7.28 5.05L7.28 5.05L7.28 5.05Q7.28 5.15 7.28 5.21L7.28 5.21L7.28 5.21Q7.29 5.24 7.39 5.31L7.39 5.31L7.39 5.31Q7.49 5.38 7.80 5.53L7.80 5.53L7.80 5.53Q8.55 5.89 8.55 6.47L8.55 6.47L8.55 6.47Q8.55 6.50 8.55 6.57L8.55 6.57L8.55 6.57Q8.54 6.65 8.53 6.80L8.53 6.80L8.53 6.80Q8.53 6.96 8.50 7.22L8.50 7.22L8.50 7.22Q8.47 7.49 8.43 7.91L8.43 7.91L8.43 7.91Q8.40 8.20 8.38 8.40L8.38 8.40L8.38 8.40Q8.36 8.60 8.34 8.72L8.34 8.72L8.34 8.72Q8.33 8.85 8.32 8.93L8.32 8.93L8.32 8.93Q8.32 9.02 8.32 9.10L8.32 9.10L8.32 9.10Q8.32 9.44 8.39 9.52L8.39 9.52L8.39 9.52Q8.46 9.60 8.53 9.60L8.53 9.60L8.53 9.60Q8.54 9.59 8.59 9.53L8.59 9.53L8.59 9.53Q8.64 9.46 8.71 9.30L8.71 9.30L8.71 9.30Q8.79 9.14 8.90 8.87L8.90 8.87L8.90 8.87Q9.00 8.60 9.16 8.16L9.16 8.16L9.16 8.16Q9.63 6.79 9.74 6.05L9.74 6.05L9.74 6.05Q9.79 5.73 9.91 5.63L9.91 5.63L9.91 5.63Q10.04 5.53 10.15 5.53ZM13.19 5.49L13.19 5.49L13.19 5.49Q13.37 5.49 13.36 5.59L13.36 5.59L13.36 5.59Q13.34 5.70 13.34 5.87L13.34 5.87L13.34 5.87Q13.34 5.89 13.33 5.96L13.33 5.96L13.33 5.96Q13.33 6.02 13.30 6.13L13.30 6.13L13.30 6.13Q13.27 6.24 13.23 6.44L13.23 6.44L13.23 6.44Q13.19 6.64 13.10 6.93L13.10 6.93L13.10 6.93Q12.84 8.01 12.53 8.83L12.53 8.83L12.53 8.83Q12.38 9.24 12.23 9.53L12.23 9.53L12.23 9.53Q12.08 9.81 11.94 10.01L11.94 10.01L11.94 10.01Q11.56 10.54 10.99 10.54L10.99 10.54L10.99 10.54Q10.35 10.54 9.88 9.87L9.88 9.87L9.88 9.87Q9.46 9.24 9.46 8.34L9.46 8.34L9.46 8.34Q9.46 7.62 9.57 6.87L9.57 6.87L9.57 6.87Q9.67 6.13 9.84 5.54L9.84 5.54L9.84 5.54Q9.90 5.33 9.97 5.11L9.97 5.11L9.97 5.11Q10.05 4.89 10.16 4.70L10.16 4.70L10.16 4.70Q10.28 4.51 10.42 4.39L10.42 4.39L10.42 4.39Q10.56 4.27 10.75 4.27L10.75 4.27L10.75 4.27Q11.14 4.27 11.48 4.56L11.48 4.56L11.48 4.56Q11.63 4.72 11.73 4.94L11.73 4.94L11.73 4.94Q11.83 5.17 11.83 5.33L11.83 5.33L11.83 5.33Q11.83 5.61 11.77 5.95L11.77 5.95L11.77 5.95Q11.72 6.29 11.63 6.62L11.63 6.62L11.63 6.62Q11.55 6.94 11.44 7.22L11.44 7.22L11.44 7.22Q11.34 7.49 11.23 7.66L11.23 7.66L11.23 7.66Q11.16 7.78 11.03 7.91L11.03 7.91L11.03 7.91Q10.91 8.04 10.77 8.11L10.77 8.11L10.77 8.11Q10.64 8.19 10.52 8.20L10.52 8.20L10.52 8.20Q10.40 8.20 10.32 8.09L10.32 8.09L10.32 8.09Q10.29 8.20 10.30 8.39L10.30 8.39L10.30 8.39Q10.32 8.57 10.35 8.74L10.35 8.74L10.35 8.74Q10.37 8.92 10.42 9.07L10.42 9.07L10.42 9.07Q10.46 9.23 10.49 9.30L10.49 9.30L10.49 9.30Q10.60 9.53 10.78 9.65L10.78 9.65L10.78 9.65Q10.96 9.77 11.03 9.77L11.03 9.77L11.03 9.77Q11.17 9.77 11.30 9.56L11.30 9.56L11.30 9.56Q11.44 9.35 11.65 9.03L11.65 9.03L11.65 9.03Q11.89 8.65 12.18 7.97L12.18 7.97L12.18 7.97Q12.47 7.28 12.71 6.50L12.71 6.50L12.71 6.50Q12.75 6.34 12.79 6.20L12.79 6.20L12.79 6.20Q12.82 6.05 12.87 5.89L12.87 5.89L12.87 5.89Q12.94 5.49 13.19 5.49ZM10.99 5.19L10.99 5.19L10.99 5.19Q10.88 5.50 10.79 5.75L10.79 5.75L10.79 5.75Q10.70 5.99 10.61 6.22L10.61 6.22L10.61 6.22Q10.53 6.45 10.47 6.69L10.47 6.69L10.47 6.69Q10.42 6.93 10.40 7.22L10.40 7.22L10.40 7.22Q10.58 7.21 10.72 6.97L10.72 6.97L10.72 6.97Q10.85 6.73 10.89 6.54L10.89 6.54L10.89 6.54Q10.95 6.26 11.01 5.97L11.01 5.97L11.01 5.97Q11.07 5.68 11.07 5.38L11.07 5.38L11.07 5.38Q11.07 5.31 11.05 5.20L11.05 5.20L11.05 5.20Q11.03 5.10 10.99 5.19ZM15.92 5.59L15.92 5.59L15.92 5.59Q15.99 5.59 16.00 5.66L16.00 5.66L16.00 5.66Q16.02 5.73 16.02 6.05L16.02 6.05L16.02 6.05Q16.02 6.13 15.97 6.38L15.97 6.38L15.97 6.38Q15.92 6.64 15.74 7.32L15.74 7.32L15.74 7.32Q15.50 8.18 15.30 8.76L15.30 8.76L15.30 8.76Q15.11 9.35 14.91 9.69L14.91 9.69L14.91 9.69Q14.49 10.50 13.90 10.50L13.90 10.50L13.90 10.50Q13.19 10.50 12.81 9.83L12.81 9.83L12.81 9.83Q12.46 9.21 12.46 8.13L12.46 8.13L12.46 8.13Q12.46 7 12.85 5.84L12.85 5.84L12.85 5.84Q13.29 4.55 13.87 4.55L13.87 4.55L13.87 4.55Q14.03 4.55 14.14 4.59L14.14 4.59L14.14 4.59Q14.25 4.63 14.41 4.83L14.41 4.83L14.41 4.83Q14.56 5.03 14.59 5.21L14.59 5.21L14.59 5.21Q14.63 5.40 14.59 5.54L14.59 5.54L14.59 5.54Q14.50 5.85 14.36 5.98L14.36 5.98L14.36 5.98Q14.21 6.10 14.14 6.10L14.14 6.10L14.14 6.10Q13.94 6.10 13.85 5.99L13.85 5.99L13.85 5.99Q13.38 6.73 13.38 8.68L13.38 8.68L13.38 8.68Q13.38 9.13 13.52 9.41L13.52 9.41L13.52 9.41Q13.57 9.49 13.63 9.56L13.63 9.56L13.63 9.56Q13.69 9.63 13.76 9.63L13.76 9.63L13.76 9.63Q13.85 9.63 14.02 9.54L14.02 9.54L14.02 9.54Q14.20 9.45 14.43 9.13L14.43 9.13L14.43 9.13Q14.66 8.82 14.91 8.22L14.91 8.22L14.91 8.22Q15.16 7.62 15.40 6.58L15.40 6.58L15.40 6.58Q15.47 6.26 15.51 6.14L15.51 6.14L15.51 6.14Q15.55 6.02 15.55 5.99L15.55 5.99L15.55 5.98L15.57 5.95L15.57 5.95Q15.64 5.73 15.74 5.66L15.74 5.66L15.74 5.66Q15.83 5.59 15.92 5.59ZM17.29 9.66L17.29 9.66L17.29 9.66Q16.93 10.44 16.39 10.44L16.39 10.44L16.39 10.44Q16.21 10.44 16.00 10.35L16.00 10.35L16.00 10.35Q15.78 10.25 15.58 9.93L15.58 9.93L15.58 9.93Q15.46 9.69 15.39 9.40L15.39 9.40L15.39 9.40Q15.32 9.11 15.32 8.75L15.32 8.75L15.32 8.75Q15.32 8.44 15.44 7.07L15.44 7.07L15.44 7.07Q15.51 6.40 15.54 5.99L15.54 5.99L15.54 5.99Q15.57 5.57 15.57 5.43L15.57 5.43L15.57 5.43Q15.57 5.29 15.57 5.22L15.57 5.22L15.57 5.22Q15.57 5.15 15.61 5.12L15.61 5.12L15.61 5.12Q15.65 5.10 15.76 5.11L15.76 5.11L15.76 5.11Q15.86 5.12 16.07 5.17L16.07 5.17L16.07 5.17Q16.46 5.24 16.57 5.35L16.57 5.35L16.57 5.35Q16.67 5.46 16.67 5.54L16.67 5.54L16.67 5.54Q16.67 5.59 16.65 5.67L16.65 5.67L16.65 5.67Q16.63 5.75 16.60 5.85L16.60 5.85L16.60 5.85Q16.58 5.95 16.55 6.03L16.55 6.03L16.55 6.03Q16.53 6.12 16.53 6.15L16.53 6.15L16.53 6.15Q16.51 6.26 16.46 6.55L16.46 6.55L16.46 6.55Q16.41 6.85 16.34 7.17L16.34 7.17L16.34 7.17Q16.25 7.62 16.22 7.99L16.22 7.99L16.22 7.99Q16.18 8.36 16.18 8.78L16.18 8.78L16.18 8.78Q16.18 8.85 16.19 8.97L16.19 8.97L16.19 8.97Q16.20 9.10 16.22 9.23L16.22 9.23L16.22 9.23Q16.24 9.37 16.29 9.46L16.29 9.46L16.29 9.46Q16.34 9.56 16.42 9.58L16.42 9.58L16.42 9.58Q16.45 9.56 16.53 9.44L16.53 9.44L16.53 9.44Q16.62 9.32 16.76 8.96L16.76 8.96L16.76 8.96Q16.79 8.88 16.95 8.50L16.95 8.50L16.95 8.50Q17.12 8.12 17.33 7.45L17.33 7.45L17.33 7.45Q17.40 7.22 17.51 6.90L17.51 6.90L17.51 6.90Q17.63 6.58 17.75 6.13L17.75 6.13L17.75 6.13Q17.77 6.08 17.79 5.99L17.79 5.99L17.79 5.99Q17.82 5.89 17.86 5.81L17.86 5.81L17.86 5.81Q17.91 5.73 17.98 5.67L17.98 5.67L17.98 5.67Q18.05 5.61 18.16 5.61L18.16 5.61L18.16 5.61Q18.20 5.61 18.26 5.68L18.26 5.68L18.26 5.68Q18.33 5.74 18.33 6.03L18.33 6.03L18.33 6.03Q18.33 6.10 18.31 6.22L18.31 6.22L18.31 6.22Q18.30 6.34 18.24 6.59L18.24 6.59L18.24 6.59Q18.19 6.83 18.08 7.21L18.08 7.21L18.08 7.21Q17.98 7.59 17.79 8.18L17.79 8.18L17.79 8.18Q17.60 8.81 17.48 9.16L17.48 9.16L17.48 9.16Q17.36 9.52 17.29 9.66ZM16.42 4.55L16.42 4.55L16.42 4.55Q16.06 4.55 15.85 4.27L15.85 4.27L15.85 4.27Q15.62 4.00 15.62 3.72L15.62 3.72L15.62 3.72Q15.62 3.49 15.85 3.26L15.85 3.26L15.85 3.26Q16.10 3.04 16.30 3.04L16.30 3.04L16.30 3.04Q16.63 3.04 16.81 3.23L16.81 3.23L16.81 3.23Q17.00 3.43 17.00 3.79L17.00 3.79L17.00 3.79Q17.00 4.05 16.93 4.20L16.93 4.20L16.93 4.20Q16.87 4.35 16.77 4.43L16.77 4.43L16.77 4.43Q16.67 4.51 16.58 4.53L16.58 4.53L16.58 4.53Q16.48 4.55 16.42 4.55ZM21.97 5.53L21.97 5.53L21.97 5.53Q22.30 5.53 22.30 5.87L22.30 5.87L22.30 5.87Q22.30 6.23 22.20 6.64L22.20 6.64L22.20 6.64Q22.11 7.06 21.90 7.52L21.90 7.52L21.90 7.52Q21.49 8.43 20.80 8.43L20.80 8.43L20.80 8.43Q20.76 8.43 20.69 8.41L20.69 8.41L20.69 8.41Q20.62 8.39 20.43 8.32L20.43 8.32L20.43 8.32Q20.40 8.46 20.36 8.60L20.36 8.60L20.36 8.60Q20.33 8.75 20.29 8.92L20.29 8.92L20.29 8.95L20.29 8.95Q20.16 9.31 20.06 9.55L20.06 9.55L20.06 9.55Q19.96 9.79 19.88 9.93L19.88 9.93L19.88 9.93Q19.52 10.51 18.97 10.51L18.97 10.51L18.97 10.51Q18.30 10.51 17.98 9.84L17.98 9.84L17.98 9.84Q17.68 9.24 17.68 8.06L17.68 8.06L17.68 8.06Q17.68 6.66 17.91 6.12L17.91 6.12L17.91 6.03L17.91 6.03Q17.89 5.95 17.89 5.89L17.89 5.89L17.89 5.89Q17.89 5.82 17.89 5.77L17.89 5.77L17.89 5.75L17.89 5.75Q17.92 5.54 18.00 5.46L18.00 5.46L18.00 5.46Q18.02 5.40 18.05 5.28L18.05 5.28L18.05 5.28Q18.07 5.15 18.14 4.87L18.14 4.87L18.14 4.87Q18.19 4.66 18.28 4.54L18.28 4.54L18.28 4.54Q18.37 4.41 18.47 4.34L18.47 4.34L18.47 4.34Q18.56 4.27 18.66 4.25L18.66 4.25L18.66 4.25Q18.76 4.23 18.84 4.23L18.84 4.23L18.84 4.23Q19.28 4.23 19.77 4.59L19.77 4.59L19.77 4.59Q20.26 4.94 20.41 5.38L20.41 5.38L20.41 5.38Q20.43 5.43 20.45 5.54L20.45 5.54L20.45 5.54Q20.47 5.66 20.48 5.89L20.48 5.89L20.48 5.89Q20.50 6.12 20.51 6.51L20.51 6.51L20.51 6.51Q20.52 6.90 20.52 7.50L20.52 7.50L20.52 7.50Q20.59 7.56 20.69 7.56L20.69 7.56L20.69 7.56Q20.82 7.56 20.98 7.49L20.98 7.49L20.98 7.49Q21.14 7.42 21.29 7.10L21.29 7.10L21.29 7.10Q21.32 7.01 21.40 6.77L21.40 6.77L21.40 6.77Q21.48 6.52 21.60 5.95L21.60 5.95L21.60 5.95Q21.69 5.53 21.97 5.53ZM19.31 9.17L19.31 9.17L19.31 9.17Q19.52 8.71 19.58 8.45L19.58 8.45L19.58 8.45Q19.64 8.19 19.64 8.08L19.64 8.08L19.64 8.08Q19.64 7.88 19.61 7.62L19.61 7.62L19.61 7.62Q19.59 7.35 19.53 7.03L19.53 7.03L19.53 7.03Q19.45 6.58 19.42 6.41L19.42 6.41L19.42 6.41Q19.40 6.24 19.40 6.17L19.40 6.17L19.40 6.17Q19.40 6.10 19.40 6.02L19.40 6.02L19.40 6.02Q19.40 5.94 19.43 5.82L19.43 5.82L19.43 5.82Q19.45 5.71 19.45 5.63L19.45 5.63L19.45 5.63Q19.45 5.56 19.45 5.52L19.45 5.52L19.45 5.52Q19.45 5.32 19.38 5.26L19.38 5.26L19.38 5.26Q19.31 5.19 19.19 5.19L19.19 5.19L19.19 5.19Q19.18 5.21 19.14 5.26L19.14 5.26L19.14 5.26Q19.11 5.32 19.06 5.45L19.06 5.45L19.06 5.45Q19.01 5.59 18.95 5.82L18.95 5.82L18.95 5.82Q18.89 6.06 18.82 6.44L18.82 6.44L18.82 6.44Q18.70 7.03 18.65 7.47L18.65 7.47L18.65 7.47Q18.59 7.91 18.59 8.23L18.59 8.23L18.59 8.23Q18.59 8.43 18.61 8.67L18.61 8.67L18.61 8.67Q18.62 8.90 18.67 9.12L18.67 9.12L18.67 9.12Q18.72 9.34 18.80 9.48L18.80 9.48L18.80 9.48Q18.89 9.63 19.03 9.65L19.03 9.65L19.03 9.65Q19.05 9.62 19.12 9.53L19.12 9.53L19.12 9.53Q19.18 9.44 19.31 9.17ZM26.04 5.53L26.04 5.53L26.04 5.53Q26.15 5.53 26.26 5.61L26.26 5.61L26.26 5.61Q26.36 5.70 26.36 5.91L26.36 5.91L26.36 5.91Q26.36 6.41 25.84 8.06L25.84 8.06L25.84 8.06Q25.48 9.16 25.14 9.68L25.14 9.68L25.14 9.68Q24.79 10.21 24.40 10.21L24.40 10.21L24.40 10.21Q24.04 10.21 23.81 9.87L23.81 9.87L23.81 9.87Q23.76 9.79 23.69 9.64L23.69 9.64L23.69 9.64Q23.62 9.49 23.55 9.30L23.55 9.30L23.55 9.30Q23.41 9.63 23.36 9.76L23.36 9.76L23.36 9.76Q23.31 9.88 23.28 9.93L23.28 9.93L23.28 9.94L23.28 9.94Q22.92 10.51 22.40 10.51L22.40 10.51L22.40 10.51Q22.25 10.51 22.04 10.42L22.04 10.42L22.04 10.42Q21.84 10.33 21.66 10.04L21.66 10.04L21.66 10.04Q21.41 9.60 21.41 9.04L21.41 9.04L21.41 9.04Q21.41 8.57 21.43 8.03L21.43 8.03L21.43 8.03Q21.45 7.49 21.48 6.86L21.48 6.86L21.48 6.86Q21.50 6.37 21.53 6.09L21.53 6.09L21.53 6.09Q21.56 5.81 21.58 5.67L21.58 5.67L21.58 5.67Q21.60 5.53 21.62 5.48L21.62 5.48L21.62 5.48Q21.63 5.43 21.64 5.40L21.64 5.40L21.64 5.40Q21.69 5.33 21.78 5.26L21.78 5.26L21.78 5.26Q21.88 5.18 22.08 5.18L22.08 5.18L22.08 5.18Q22.16 5.18 22.27 5.22L22.27 5.22L22.27 5.22Q22.39 5.26 22.50 5.39L22.50 5.39L22.50 5.39Q22.68 5.57 22.68 5.78L22.68 5.78L22.68 5.78Q22.68 5.92 22.61 6.17L22.61 6.17L22.61 6.17Q22.57 6.33 22.55 6.41L22.55 6.41L22.55 6.41Q22.53 6.48 22.53 6.51L22.53 6.51L22.53 6.51Q22.32 7.67 22.32 9.27L22.32 9.27L22.32 9.27Q22.32 9.55 22.35 9.63L22.35 9.63L22.35 9.63Q22.39 9.72 22.40 9.73L22.40 9.73L22.40 9.73Q22.47 9.73 22.52 9.66L22.52 9.66L22.52 9.66Q22.57 9.59 22.61 9.52L22.61 9.52L22.61 9.52Q22.68 9.37 22.75 9.21L22.75 9.21L22.75 9.21Q22.82 9.04 22.89 8.89L22.89 8.89L22.89 8.88L22.89 8.88Q23.21 8.19 23.37 7L23.37 7L23.37 7Q23.38 6.93 23.40 6.75L23.40 6.75L23.40 6.75Q23.42 6.58 23.48 6.30L23.48 6.30L23.48 6.29L23.48 6.29Q23.55 5.89 23.55 5.73L23.55 5.73L23.55 5.33L23.55 5.33Q23.51 5.04 23.60 4.83L23.60 4.83L23.60 4.83Q23.72 4.59 23.98 4.59L23.98 4.59L24.07 4.59L24.07 4.59Q24.47 4.61 24.57 4.77L24.57 4.77L24.57 4.77Q24.67 4.93 24.67 5.04L24.67 5.04L24.67 5.04Q24.67 5.18 24.56 5.36L24.56 5.36L24.56 5.36Q24.51 5.45 24.49 5.60L24.49 5.60L24.49 5.60Q24.49 5.61 24.48 5.66L24.48 5.66L24.48 5.66Q24.47 5.70 24.46 5.82L24.46 5.82L24.46 5.82Q24.44 5.94 24.42 6.16L24.42 6.16L24.42 6.16Q24.39 6.38 24.33 6.75L24.33 6.75L24.33 6.75Q24.28 7.15 24.25 7.50L24.25 7.50L24.25 7.50Q24.22 7.84 24.22 8.11L24.22 8.11L24.22 8.11Q24.22 8.44 24.24 8.70L24.24 8.70L24.24 8.70Q24.26 8.96 24.32 9.11L24.32 9.11L24.32 9.11Q24.39 9.32 24.44 9.34L24.44 9.34L24.44 9.34Q24.46 9.34 24.50 9.30L24.50 9.30L24.50 9.30Q24.54 9.25 24.63 9.11L24.63 9.11L24.63 9.11Q24.71 8.97 24.82 8.72L24.82 8.72L24.82 8.72Q24.93 8.47 25.07 8.02L25.07 8.02L25.07 8.02Q25.23 7.46 25.38 6.94L25.38 6.94L25.38 6.94Q25.52 6.41 25.68 5.89L25.68 5.89L25.68 5.89Q25.80 5.53 26.04 5.53ZM26.73 5.49L26.73 5.49L26.73 5.49Q26.73 5.77 26.82 6.19L26.82 6.19L26.82 6.19Q26.91 6.61 27.09 7.20L27.09 7.20L27.09 7.20Q27.29 7.81 27.37 8.24L27.37 8.24L27.37 8.24Q27.45 8.67 27.45 8.93L27.45 8.93L27.45 8.93Q27.45 9.66 27.15 10.11L27.15 10.11L27.15 10.11Q26.80 10.63 26.29 10.63L26.29 10.63L26.29 10.63Q25.76 10.63 25.34 10.16L25.34 10.16L25.34 10.16Q25.05 9.86 25.05 9.55L25.05 9.55L25.05 9.55Q25.05 9.11 25.33 9.04L25.33 9.04L25.33 9.04Q25.34 9.04 25.35 9.04L25.35 9.04L25.35 9.04Q25.35 9.03 25.37 9.03L25.37 9.03L25.37 9.03Q25.44 9.03 25.55 9.09L25.55 9.09L25.55 9.09Q25.66 9.16 25.68 9.44L25.68 9.44L25.68 9.44Q25.87 9.84 26.04 9.84L26.04 9.84L26.04 9.84Q26.11 9.84 26.20 9.81L26.20 9.81L26.20 9.81Q26.29 9.77 26.38 9.62L26.38 9.62L26.38 9.62Q26.53 9.34 26.53 8.88L26.53 8.88L26.53 8.88Q26.53 8.33 26.25 7.36L26.25 7.36L26.25 7.35L26.25 7.35Q26.22 7.28 26.20 7.19L26.20 7.19L26.20 7.19Q26.18 7.10 26.15 7.01L26.15 7.01L26.15 7.01Q26.10 7.18 26.05 7.36L26.05 7.36L26.05 7.36Q26.01 7.53 25.96 7.70L25.96 7.70L25.96 7.71L25.96 7.71Q25.93 7.77 25.89 7.88L25.89 7.88L25.89 7.88Q25.84 7.99 25.77 8.10L25.77 8.10L25.77 8.10Q25.70 8.20 25.61 8.28L25.61 8.28L25.61 8.28Q25.51 8.36 25.37 8.36L25.37 8.36L25.37 8.36Q25.26 8.36 25.16 8.30L25.16 8.30L25.16 8.30Q25.00 8.23 25.06 8.08L25.06 8.08L25.06 8.08Q25.16 7.69 25.26 7.29L25.26 7.29L25.26 7.29Q25.35 6.90 25.45 6.52L25.45 6.52L25.45 6.52Q25.56 6.15 25.61 5.72L25.61 5.72L25.61 5.72Q25.65 5.29 25.65 4.82L25.65 4.82L25.65 4.82Q25.65 4.54 25.80 4.38L25.80 4.38L25.80 4.38Q25.96 4.21 26.24 4.21L26.24 4.21L26.24 4.21Q26.45 4.21 26.58 4.27L26.58 4.27L26.58 4.27Q26.71 4.33 26.77 4.40L26.77 4.40L26.77 4.40Q26.84 4.48 26.86 4.56L26.86 4.56L26.86 4.56Q26.88 4.63 26.88 4.69L26.88 4.69L26.88 4.69Q26.88 4.72 26.87 4.79L26.87 4.79L26.87 4.79Q26.85 4.86 26.80 5.07L26.80 5.07L26.80 5.07Q26.73 5.35 26.73 5.49ZM38.50-0.35L38.50-0.35L38.50-0.35Q38.60-0.11 38.65 0.12L38.65 0.12L38.65 0.12Q38.71 0.35 38.72 0.66L38.72 0.66L38.72 0.66Q38.72 0.97 38.70 1.39L38.70 1.39L38.70 1.39Q38.67 1.82 38.58 2.45L38.58 2.45L38.54 2.84L38.54 2.84Q38.49 3.29 38.44 3.79L38.44 3.79L38.44 3.79Q38.39 4.28 38.33 4.83L38.33 4.83L38.33 4.83Q38.19 6.31 38.12 7.56L38.12 7.56L38.12 7.56Q38.05 8.81 38.05 9.79L38.05 9.79L38.05 9.79Q38.05 9.84 38.09 10.02L38.09 10.02L38.09 10.02Q38.14 10.23 38.14 10.33L38.14 10.33L38.14 10.33Q38.14 10.64 37.86 10.79L37.86 10.79L37.86 10.79Q37.62 10.92 37.21 10.92L37.21 10.92L37.21 10.92Q36.85 10.92 36.51 10.74L36.51 10.74L36.51 10.74Q36.22 10.56 36.01 10.19L36.01 10.19L36.01 10.19Q35.99 10.16 35.96 10.09L35.96 10.09L35.96 10.09Q35.92 10.01 35.86 9.85L35.86 9.85L35.86 9.85Q35.80 9.69 35.70 9.41L35.70 9.41L35.70 9.41Q35.60 9.13 35.46 8.69L35.46 8.69L35.46 8.69Q35.25 8.06 35.05 7.30L35.05 7.30L35.05 7.30Q34.85 6.54 34.65 5.64L34.65 5.64L34.65 5.64Q34.50 4.97 34.36 4.21L34.36 4.21L34.36 4.21Q34.22 3.46 34.08 2.62L34.08 2.62L34.08 2.62Q33.98 3.16 33.79 3.83L33.79 3.83L33.79 3.83Q33.60 4.49 33.47 5.45L33.47 5.45L33.47 5.45Q33.38 6.10 33.33 6.55L33.33 6.55L33.33 6.55Q33.29 7 33.28 7.33L33.28 7.33L33.28 7.33Q33.26 7.66 33.27 7.92L33.27 7.92L33.27 7.92Q33.28 8.19 33.29 8.50L33.29 8.50L33.29 8.50Q33.31 8.89 33.40 9.28L33.40 9.28L33.40 9.28Q33.49 9.67 33.56 10.02L33.56 10.02L33.56 10.02Q33.63 10.36 33.64 10.61L33.64 10.61L33.64 10.61Q33.64 10.86 33.50 10.98L33.50 10.98L33.50 10.98Q33.35 11.10 33.08 11.05L33.08 11.05L33.08 11.05Q32.80 10.99 32.61 10.58L32.61 10.58L32.61 10.58Q32.51 10.39 32.45 10.12L32.45 10.12L32.45 10.12Q32.38 9.84 32.34 9.58L32.34 9.58L32.34 9.58Q32.30 9.31 32.28 9.07L32.28 9.07L32.28 9.07Q32.26 8.83 32.26 8.69L32.26 8.69L32.26 8.69Q32.26 8.20 32.33 7.10L32.33 7.10L32.33 7.10Q32.40 5.99 32.62 4.51L32.62 4.51L32.62 4.51Q32.75 3.71 32.84 3.16L32.84 3.16L32.84 3.16Q32.94 2.62 33.01 2.22L33.01 2.22L33.01 2.22Q33.08 1.82 33.12 1.50L33.12 1.50L33.12 1.50Q33.15 1.19 33.15 0.85L33.15 0.85L33.15 0.59L33.15 0.59Q33.15 0.55 33.18 0.49L33.18 0.49L33.18 0.49Q33.25 0.36 33.34 0.28L33.34 0.28L33.34 0.28Q33.43 0.20 33.53 0.13L33.53 0.13L33.53 0.13Q33.73-0.01 33.98-0.01L33.98-0.01L33.98-0.01Q34.45-0.01 34.72 0.17L34.72 0.17L34.72 0.17Q35.01 0.39 35.01 0.77L35.01 0.77L35.01 0.77Q35.01 1.75 35.09 2.55L35.09 2.55L35.09 2.55Q35.17 3.35 35.31 4.07L35.31 4.07L35.31 4.07Q35.45 4.79 35.62 5.48L35.62 5.48L35.62 5.48Q35.80 6.17 35.97 6.94L35.97 6.94L35.97 6.94Q36.29 8.36 36.60 9.03L36.60 9.03L36.60 9.03Q36.76 9.42 36.88 9.52L36.88 9.52L36.88 9.52Q37.00 9.62 37.04 9.63L37.04 9.63L37.04 9.63Q37.07 9.60 37.11 9.47L37.11 9.47L37.11 9.47Q37.16 9.34 37.17 8.93L37.17 8.93L37.17 8.93Q37.20 8.19 37.22 7.76L37.22 7.76L37.22 7.76Q37.24 7.32 37.25 7.10L37.25 7.10L37.25 7.10Q37.25 6.87 37.26 6.80L37.26 6.80L37.26 6.80Q37.27 6.73 37.27 6.72L37.27 6.72L37.60 3.00L37.62 2.84L37.63 2.84L37.63 2.84Q37.70 2.11 37.77 1.59L37.77 1.59L37.77 1.59Q37.84 1.06 37.84 0.66L37.84 0.66L37.84 0.66Q37.84 0.43 37.77 0.22L37.77 0.22L37.77 0.22Q37.77 0.22 37.76 0.21L37.76 0.21L37.76 0.21Q37.72 0 37.76-0.15L37.76-0.15L37.76-0.15Q37.80-0.34 37.98-0.43L37.98-0.43L37.98-0.43Q38.12-0.48 38.35-0.48L38.35-0.48L38.36-0.46L38.36-0.46Q38.46-0.43 38.50-0.35ZM40.68 10.28L40.68 10.28L40.68 10.28Q40.60 10.51 40.54 10.54L40.54 10.54L40.54 10.54Q40.47 10.57 40.32 10.60L40.32 10.60L40.32 10.60Q40.17 10.63 40.02 10.54L40.02 10.54L40.02 10.54Q39.87 10.44 39.70 10.44L39.70 10.44L39.70 10.44Q39.58 10.49 39.47 10.32L39.47 10.32L39.47 10.32Q39.35 10.15 39.38 9.87L39.38 9.87L39.38 9.87Q39.42 9.67 39.47 9.56L39.47 9.56L39.47 9.56Q39.51 9.45 39.56 9.39L39.56 9.39L39.56 9.39Q39.62 9.34 39.68 9.33L39.68 9.33L39.68 9.33Q39.73 9.32 39.80 9.34L39.80 9.34L39.80 9.34Q39.86 9.35 39.90 9.36L39.90 9.36L39.90 9.36Q39.94 9.37 40.00 9.38L40.00 9.38L40.00 9.38Q40.18 9.42 40.35 9.41L40.35 9.41L40.35 9.41Q40.52 9.41 40.63 9.47L40.63 9.47L40.63 9.47Q40.74 9.53 40.76 9.71L40.76 9.71L40.76 9.71Q40.78 9.88 40.68 10.28Z"></path></g><!----><g data-v-423bf9ae="" id="bf00793c-a647-4a89-9268-e83c27c8e302" transform="matrix(1.6060433567772177,0,0,1.6060433567772177,51.59850472927394,-6.424173427108869)" stroke="none" fill="white"><g data-name="" layer="" 2"=""><path d="M37.11 35l-2.21.25a12.47 12.47 0 0 0-2.19.45L18.8 39.86a2.67 2.67 0 0 0-1.24 4.31 6.15 6.15 0 0 0 4 2.07l.91.09a6.34 6.34 0 0 1 .9.16l19.76 4.89a13.75 13.75 0 0 1 6.5 3.71l4.48 4.55a1.21 1.21 0 0 0 2-1.31l-1.71-4.2a8.4 8.4 0 0 0-2.69-3.52l-4.21-3.2a3.21 3.21 0 0 0-3.75-.1 2.1 2.1 0 0 1-2.13.14l-7.76-3.95a11 11 0 0 0-3.93-1.14l-3-.28A1 1 0 0 1 27 40h1.88a13.22 13.22 0 0 1 5.85 1.39l4.73 2.36a2.29 2.29 0 0 0 3.1-1.08 13.41 13.41 0 0 0 1.13-7.57l-.17-1.2a17 17 0 0 1-.11-3.83l.41-4.79a10.66 10.66 0 0 0-4.24-9.45 9.28 9.28 0 0 1-3.34-4.79l-.1-.35a2.52 2.52 0 0 0-.76-1.19 1.14 1.14 0 0 1-.39-.84V7.59A3.68 3.68 0 0 0 31.35 4h-1.17a4.45 4.45 0 0 0-3.52 1.73l-.4.52a3.19 3.19 0 0 0-.52 2.9l.17.54a2.19 2.19 0 0 1 .1.65v2.13a2.22 2.22 0 0 0 .41 1.28l1.24 1.75a.82.82 0 0 0 .94.3l.93-.33a.67.67 0 0 1 .77.25l.66 1a2.37 2.37 0 0 1 .33 2l-.2.73a.88.88 0 0 1-1.7-.45l.3-1.18-1.44.85a2.36 2.36 0 0 0-1.16 2.11l.1 2.84a4.51 4.51 0 0 1-.06.88l-1.08 6.65a.81.81 0 0 0 1 .9 5.31 5.31 0 0 0 3.37-3l.3-.7a.24.24 0 0 1 .43 0l.89 1.9a1.55 1.55 0 0 1-.89 2.13l-8.06 2.84a1.39 1.39 0 0 0-.9 1.58.54.54 0 0 0 .7.42l10.54-3.41a6.16 6.16 0 0 1 .77-.2l2.63-.61a1 1 0 1 1 .28 2z"></path><path d="M6.08 60h43.06a1.17 1.17 0 0 0 .65-2.14l-4.5-3a8.38 8.38 0 0 0-2.8-1.2l-13.12-3-9-2.22a9.61 9.61 0 0 1-4.18-2 3.08 3.08 0 0 0-2.61-.62l-7.95 1.82a2.08 2.08 0 0 0-1.63 2v8.24A2.08 2.08 0 0 0 6.08 60zM56.78 52a.58.58 0 0 0-.56.75l1 3.34q0 .16.08.33l.56 2.92a.81.81 0 0 0 .8.66h.54a.81.81 0 0 0 .81-.81v-4A3.22 3.22 0 0 0 56.78 52z"></path></g></g><!----></svg>