<svg data-v-423bf9ae="" xmlns="http://www.w3.org/2000/svg" viewBox="0 0 59.97007783601952 60" class="icon"><!----><!----><!----><!----><g data-v-423bf9ae="" id="48bfe976-37d1-4f2a-906d-2b80f1d11bb4" transform="matrix(1.0706955711848118,0,0,1.0706955711848118,-4.2823643239319225,-4.282782284739248)" stroke="none" fill="black"><g data-name="" layer="" 2"=""><path d="M37.11 35l-2.21.25a12.47 12.47 0 0 0-2.19.45L18.8 39.86a2.67 2.67 0 0 0-1.24 4.31 6.15 6.15 0 0 0 4 2.07l.91.09a6.34 6.34 0 0 1 .9.16l19.76 4.89a13.75 13.75 0 0 1 6.5 3.71l4.48 4.55a1.21 1.21 0 0 0 2-1.31l-1.71-4.2a8.4 8.4 0 0 0-2.69-3.52l-4.21-3.2a3.21 3.21 0 0 0-3.75-.1 2.1 2.1 0 0 1-2.13.14l-7.76-3.95a11 11 0 0 0-3.93-1.14l-3-.28A1 1 0 0 1 27 40h1.88a13.22 13.22 0 0 1 5.85 1.39l4.73 2.36a2.29 2.29 0 0 0 3.1-1.08 13.41 13.41 0 0 0 1.13-7.57l-.17-1.2a17 17 0 0 1-.11-3.83l.41-4.79a10.66 10.66 0 0 0-4.24-9.45 9.28 9.28 0 0 1-3.34-4.79l-.1-.35a2.52 2.52 0 0 0-.76-1.19 1.14 1.14 0 0 1-.39-.84V7.59A3.68 3.68 0 0 0 31.35 4h-1.17a4.45 4.45 0 0 0-3.52 1.73l-.4.52a3.19 3.19 0 0 0-.52 2.9l.17.54a2.19 2.19 0 0 1 .1.65v2.13a2.22 2.22 0 0 0 .41 1.28l1.24 1.75a.82.82 0 0 0 .94.3l.93-.33a.67.67 0 0 1 .77.25l.66 1a2.37 2.37 0 0 1 .33 2l-.2.73a.88.88 0 0 1-1.7-.45l.3-1.18-1.44.85a2.36 2.36 0 0 0-1.16 2.11l.1 2.84a4.51 4.51 0 0 1-.06.88l-1.08 6.65a.81.81 0 0 0 1 .9 5.31 5.31 0 0 0 3.37-3l.3-.7a.24.24 0 0 1 .43 0l.89 1.9a1.55 1.55 0 0 1-.89 2.13l-8.06 2.84a1.39 1.39 0 0 0-.9 1.58.54.54 0 0 0 .7.42l10.54-3.41a6.16 6.16 0 0 1 .77-.2l2.63-.61a1 1 0 1 1 .28 2z"></path><path d="M6.08 60h43.06a1.17 1.17 0 0 0 .65-2.14l-4.5-3a8.38 8.38 0 0 0-2.8-1.2l-13.12-3-9-2.22a9.61 9.61 0 0 1-4.18-2 3.08 3.08 0 0 0-2.61-.62l-7.95 1.82a2.08 2.08 0 0 0-1.63 2v8.24A2.08 2.08 0 0 0 6.08 60zM56.78 52a.58.58 0 0 0-.56.75l1 3.34q0 .16.08.33l.56 2.92a.81.81 0 0 0 .8.66h.54a.81.81 0 0 0 .81-.81v-4A3.22 3.22 0 0 0 56.78 52z"></path></g></g><!----></svg>